<svg xmlns="http://www.w3.org/2000/svg" viewBox="0 0 620 170" role="img" aria-labelledby="title desc">
  <title id="title">Tarekat Idrisiyyah</title>
  <desc id="desc">Logo Tarekat Idrisiyyah dengan lambang hijau dan wordmark</desc>
  <defs>
    <linearGradient id="globe" x1="0" y1="0" x2="1" y2="1"><stop stop-color="#44b8dc"/><stop offset=".55" stop-color="#20418e"/><stop offset="1" stop-color="#111f69"/></linearGradient>
    <linearGradient id="leaf" x1="0" y1="0" x2="1" y2="1"><stop stop-color="#d5ee72"/><stop offset=".5" stop-color="#72a82c"/><stop offset="1" stop-color="#075d3c"/></linearGradient>
  </defs>
  <g transform="translate(8 6)">
    <circle cx="76" cy="77" r="57" fill="url(#globe)" stroke="#075d3c" stroke-width="8"/>
    <path d="M21 116C31 145 59 158 91 151c30-7 47-26 53-53-20 20-42 31-65 30-24-1-42-6-58-12Z" fill="url(#leaf)"/>
    <path d="M49 143c-1-28 5-57 24-83l14 4c-15 28-19 55-16 82Z" fill="#86b933"/>
    <path d="M75 145c-1-31 8-61 29-88l14 8c-19 28-27 54-27 80Z" fill="#d4ee73"/>
    <path d="M25 31c38-31 92-34 128-5-33-12-71-7-101 16Z" fill="#0a603d"/>
    <path d="m14 17 5 10 11 1-8 8 2 11-10-5-10 5 2-11-8-8 11-1Zm45-13 4 8 9 1-7 6 2 9-8-4-8 4 2-9-7-6 9-1Zm-58 47 4 8 9 1-7 6 2 9-8-4-8 4 2-9-7-6 9-1Z" fill="#f4a800"/>
  </g>
  <text x="178" y="93" fill="#006638" font-family="Arial, Helvetica, sans-serif" font-size="53" font-weight="800" letter-spacing="1">TAREKAT</text>
  <text x="178" y="145" fill="#006638" font-family="Arial, Helvetica, sans-serif" font-size="53" font-weight="800" letter-spacing="1">IDRISIYYAH</text>
</svg>
